<?xml version="1.0" encoding="UTF-8" standalone="no"?>
<!-- Created with Inkscape (http://www.inkscape.org/) -->

<svg
   width="200mm"
   height="200mm"
   viewBox="0 0 200 200"
   version="1.1"
   id="svg5"
   inkscape:version="1.1 (c68e22c387, 2021-05-23)"
   sodipodi:docname="favicon.svg"
   inkscape:export-filename="C:\Users\jim\Downloads\bottle.png"
   inkscape:export-xdpi="32.509998"
   inkscape:export-ydpi="32.509998"
   xmlns:inkscape="http://www.inkscape.org/namespaces/inkscape"
   xmlns:sodipodi="http://sodipodi.sourceforge.net/DTD/sodipodi-0.dtd"
   xmlns="http://www.w3.org/2000/svg"
   xmlns:svg="http://www.w3.org/2000/svg">
  <sodipodi:namedview
     id="namedview7"
     pagecolor="#ffffff"
     bordercolor="#666666"
     borderopacity="1.0"
     inkscape:pageshadow="2"
     inkscape:pageopacity="0.0"
     inkscape:pagecheckerboard="0"
     inkscape:document-units="mm"
     showgrid="false"
     inkscape:snap-center="false"
     inkscape:snap-object-midpoints="false"
     inkscape:snap-page="true"
     showguides="true"
     inkscape:guide-bbox="true"
     inkscape:zoom="0.77771465"
     inkscape:cx="265.52155"
     inkscape:cy="601.12022"
     inkscape:window-width="2560"
     inkscape:window-height="1377"
     inkscape:window-x="-8"
     inkscape:window-y="208"
     inkscape:window-maximized="1"
     inkscape:current-layer="layer5"
     inkscape:snap-others="false">
    <sodipodi:guide
       position="99.999999,99.999999"
       orientation="0,1"
       id="guide846"
       inkscape:label=""
       inkscape:locked="true"
       inkscape:color="rgb(0,0,255)" />
    <sodipodi:guide
       position="99.999999,99.999999"
       orientation="-1,0"
       id="guide928"
       inkscape:label=""
       inkscape:locked="true"
       inkscape:color="rgb(0,0,255)" />
  </sodipodi:namedview>
  <defs
     id="defs2" />
  <g
     inkscape:label="Circle"
     inkscape:groupmode="layer"
     id="layer1"
     style="display:none">
    <circle
       style="fill:#7c0077;fill-opacity:1;stroke:none;stroke-width:2;stroke-miterlimit:4;stroke-dasharray:none;stroke-opacity:1"
       id="path972"
       cx="100"
       cy="100"
       r="100" />
  </g>
  <g
     inkscape:groupmode="layer"
     id="layer3"
     inkscape:label="SmallStar"
     style="display:inline">
    <path
       sodipodi:type="star"
       style="fill:#7c0077;fill-opacity:1;stroke:none;stroke-width:7.55906;stroke-miterlimit:4;stroke-dasharray:none;stroke-opacity:1"
       id="path5183"
       inkscape:flatsided="false"
       sodipodi:sides="4"
       sodipodi:cx="377.95276"
       sodipodi:cy="377.95276"
       sodipodi:r1="345.68695"
       sodipodi:r2="103.70609"
       sodipodi:arg1="0.78539816"
       sodipodi:arg2="1.5707963"
       inkscape:rounded="0"
       inkscape:randomized="0"
       d="M 622.39035,622.39034 377.95276,481.65885 133.51517,622.39035 274.24667,377.95276 133.51517,133.51517 377.95276,274.24667 622.39034,133.51517 481.65885,377.95276 Z"
       transform="matrix(0.32734733,0,0,0.32734733,-23.721827,-23.721825)"
       inkscape:transform-center-x="1.3072058e-06"
       inkscape:transform-center-y="-1.3072058e-06" />
  </g>
  <g
     inkscape:groupmode="layer"
     id="layer2"
     inkscape:label="BigStar"
     style="display:inline">
    <path
       sodipodi:type="star"
       style="fill:#5b007e;fill-opacity:1;stroke:none;stroke-width:7.55906;stroke-miterlimit:4;stroke-dasharray:none;stroke-opacity:1"
       id="path5158"
       inkscape:flatsided="false"
       sodipodi:sides="4"
       sodipodi:cx="377.95276"
       sodipodi:cy="377.95276"
       sodipodi:r1="378.51651"
       sodipodi:r2="113.55495"
       sodipodi:arg1="0"
       sodipodi:arg2="0.78539816"
       inkscape:rounded="0"
       inkscape:randomized="0"
       d="M 756.46927,377.95276 458.24823,458.24823 377.95276,756.46927 297.65729,458.24823 -0.56375122,377.95276 297.65729,297.65729 377.95276,-0.56375122 458.24823,297.65729 Z"
       transform="matrix(0.26418927,0,0,0.26418927,0.14893797,0.14893797)" />
  </g>
  <g
     inkscape:groupmode="layer"
     id="layer5"
     inkscape:label="Bottle">
    <path
       id="path7121"
       style="fill:#2e0006;fill-opacity:1;stroke:#ffffff;stroke-width:7.55905522;stroke-linecap:butt;stroke-linejoin:miter;stroke-miterlimit:4;stroke-dasharray:none;stroke-opacity:1"
       d="m 346.35547,84.076172 c -0.16365,2.853517 3.60869,1.578866 3.875,6.574219 -2.12134,6.798489 -5.60193,15.027309 -5.62695,28.806639 0.0465,3.68076 3.67081,0.14047 3.37695,5.26758 -0.69177,5.86585 -13.35106,145.85127 -12.21289,167.9375 -0.50971,16.63094 -23.80856,32.46385 -33.91211,65.91992 -0.36779,2.57318 -0.16602,293.48828 -0.16602,293.48828 0,0 2.73262,19.93038 17.51953,25.23438 14.78695,5.304 43.07082,8.19668 58.74414,8.35742 15.67333,-0.16074 43.95528,-3.05342 58.74219,-8.35742 14.78695,-5.304 17.51953,-25.23438 17.51953,-25.23438 0,0 0.20369,-290.9151 -0.16406,-293.48828 -10.10355,-33.45609 -33.4024,-49.28898 -33.91211,-65.91992 1.13817,-22.08623 -11.52112,-162.07165 -12.21289,-167.9375 -0.29386,-5.12711 3.32851,-1.58682 3.375,-5.26758 -0.025,-13.77933 -3.50366,-22.00815 -5.625,-28.806639 0.26631,-4.995353 4.03865,-3.720702 3.875,-6.574219 -2.09586,-12.002453 -31.59802,-11.420542 -31.59802,-11.420542 -3.47354,0.0078 -29.76341,0.918396 -31.59729,11.420542 z"
       transform="scale(0.26458333)"
       sodipodi:nodetypes="cccccccscsccccccccc" />
  </g>
</svg>
